<?xml version="1.0" standalone="no"?><!DOCTYPE svg PUBLIC "-//W3C//DTD SVG 1.1//EN" "http://www.w3.org/Graphics/SVG/1.1/DTD/svg11.dtd"><svg t="1542619947205" class="icon" style="" viewBox="0 0 1024 1024" version="1.1" xmlns="http://www.w3.org/2000/svg" p-id="7370" xmlns:xlink="http://www.w3.org/1999/xlink" width="200" height="200"><defs><style type="text/css"></style></defs><path d="M315.65382 748.167263h49.089392l0.242904-251.405697c-19.151467 5.928377-49.150117 6.118146-49.150118 6.118146z" fill="#1296db" p-id="7371"></path><path d="M511.996205 0C229.240702 0 0 229.240702 0 511.996205S229.240702 1023.992409 511.996205 1023.992409 1023.992409 794.751707 1023.992409 511.996205 794.751707 0 511.996205 0z m293.762092 512.671782l-53.028992 234.144328a24.928029 24.928029 0 0 1-3.529699 7.590751 71.99828 71.99828 0 0 1-64.764294 39.942536v-0.144224l-340.748846-0.144225a23.060704 23.060704 0 0 1-3.64356 0.30363 24.176544 24.176544 0 0 1-3.651152-0.30363l-90.633576-0.037953a25.4442 25.4442 0 0 1-3.901646 0.326402 24.556082 24.556082 0 0 1-24.556082-24.5409l0.227723-294.726118a24.5409 24.5409 0 0 1 24.556081-24.5409 26.377862 26.377862 0 0 1 2.990757 0.197359l81.471538-0.189769V450.131578c74.951083-5.366661 134.356306-66.798615 136.466535-142.630225-0.189769-2.133001-0.326402-4.281184-0.326403-6.467321a71.353066 71.353066 0 0 1 140.945079-16.099984l0.364356-0.053135A257.508662 257.508662 0 0 1 595.828467 425.841172l137.035841 0.144225a24.328359 24.328359 0 0 1 3.711877 0.311221 72.810491 72.810491 0 0 1 59.207864 34.363333 72.317092 72.317092 0 0 1 10.695369 43.715139 24.761032 24.761032 0 0 1-0.70594 8.296692z" fill="#1296db" p-id="7372"></path></svg>